HIERARCHY
ROOT Hips
{
  OFFSET 0.0000 94.0000 0.0000
  CHANNELS 6 Xposition Yposition Zposition Yrotation Xrotation Zrotation
  JOINT Spine
  {
    OFFSET 0.0000 12.9947 0.0000
    CHANNELS 3 Yrotation Xrotation Zrotation
    JOINT Spine1
    {
      OFFSET 0.0000 12.7099 0.0000
      CHANNELS 3 Yrotation Xrotation Zrotation
      JOINT Spine2
      {
        OFFSET 0.0000 12.7829 0.0000
        CHANNELS 3 Yrotation Xrotation Zrotation
        JOINT LeftShoulder
        {
          OFFSET 7.0401 10.4351 0.0000
          CHANNELS 3 Yrotation Xrotation Zrotation
          JOINT LeftArm
          {
            OFFSET 0.0000 13.4599 0.0000
            CHANNELS 3 Yrotation Xrotation Zrotation
            JOINT LeftForeArm
            {
              OFFSET -0.0001 26.1000 0.0000
              CHANNELS 3 Yrotation Xrotation Zrotation
              JOINT LeftHand
              {
                OFFSET 0.0000 28.9001 0.0000
                CHANNELS 3 Yrotation Xrotation Zrotation
                JOINT LeftHandIndex1
                {
                  OFFSET -2.5612 8.0739 0.1030
                  CHANNELS 3 Yrotation Xrotation Zrotation
                  JOINT LeftHandIndex2
                  {
                    OFFSET 0.0000 4.5805 0.0000
                    CHANNELS 3 Yrotation Xrotation Zrotation
                    JOINT LeftHandIndex3
                    {
                      OFFSET 0.0000 2.8180 0.0000
                      CHANNELS 3 Yrotation Xrotation Zrotation
                      End Site
                      {
                        OFFSET 0.0000 1.3566 0.0000
                      }
                    }
                  }
                }
                JOINT LeftHandMiddle1
                {
                  OFFSET -0.5450 8.1365 0.1030
                  CHANNELS 3 Yrotation Xrotation Zrotation
                  JOINT LeftHandMiddle2
                  {
                    OFFSET 0.0000 4.7024 0.0000
                    CHANNELS 3 Yrotation Xrotation Zrotation
                    JOINT LeftHandMiddle3
                    {
                      OFFSET 0.0000 3.1016 0.0000
                      CHANNELS 3 Yrotation Xrotation Zrotation
                      End Site
                      {
                        OFFSET 0.0000 1.4991 0.0000
                      }
                    }
                  }
                }
                JOINT LeftHandPinky1
                {
                  OFFSET 3.1368 7.0181 0.1031
                  CHANNELS 3 Yrotation Xrotation Zrotation
                  JOINT LeftHandPinky2
                  {
                    OFFSET 0.0000 3.5540 0.0000
                    CHANNELS 3 Yrotation Xrotation Zrotation
                    JOINT LeftHandPinky3
                    {
                      OFFSET 0.0000 2.2339 0.0000
                      CHANNELS 3 Yrotation Xrotation Zrotation
                      End Site
                      {
                        OFFSET 0.0000 1.1205 0.0000
                      }
                    }
                  }
                }
                JOINT LeftHandRing1
                {
                  OFFSET 1.4405 7.8067 0.1031
                  CHANNELS 3 Yrotation Xrotation Zrotation
                  JOINT LeftHandRing2
                  {
                    OFFSET 0.0000 4.3922 0.0000
                    CHANNELS 3 Yrotation Xrotation Zrotation
                    JOINT LeftHandRing3
                    {
                      OFFSET 0.0000 2.8327 0.0000
                      CHANNELS 3 Yrotation Xrotation Zrotation
                      End Site
                      {
                        OFFSET 0.0000 1.3500 0.0000
                      }
                    }
                  }
                }
                JOINT LeftHandThumb1
                {
                  OFFSET -2.7863 2.0790 0.0946
                  CHANNELS 3 Yrotation Xrotation Zrotation
                  JOINT LeftHandThumb2
                  {
                    OFFSET 0.0000 3.9619 0.0000
                    CHANNELS 3 Yrotation Xrotation Zrotation
                    JOINT LeftHandThumb3
                    {
                      OFFSET 0.0000 3.0071 0.0000
                      CHANNELS 3 Yrotation Xrotation Zrotation
                      End Site
                      {
                        OFFSET 0.0000 1.7295 0.0000
                      }
                    }
                  }
                }
              }
            }
          }
        }
        JOINT Neck
        {
          OFFSET 0.0000 18.2093 0.0000
          CHANNELS 3 Yrotation Xrotation Zrotation
          JOINT Head
          {
            OFFSET 0.0000 11.0335 0.0000
            CHANNELS 3 Yrotation Xrotation Zrotation
            End Site
            {
              OFFSET 0.0000 8.0220 0.0000
            }
          }
        }
        JOINT RightShoulder
        {
          OFFSET -7.0401 10.4351 0.0000
          CHANNELS 3 Yrotation Xrotation Zrotation
          JOINT RightArm
          {
            OFFSET 0.0000 13.4599 0.0000
            CHANNELS 3 Yrotation Xrotation Zrotation
            JOINT RightForeArm
            {
              OFFSET 0.0000 26.1001 0.0000
              CHANNELS 3 Yrotation Xrotation Zrotation
              JOINT RightHand
              {
                OFFSET -0.0001 28.9001 -0.0001
                CHANNELS 3 Yrotation Xrotation Zrotation
                JOINT RightHandIndex1
                {
                  OFFSET 2.5611 8.0740 0.1030
                  CHANNELS 3 Yrotation Xrotation Zrotation
                  JOINT RightHandIndex2
                  {
                    OFFSET 0.0000 4.5805 -0.0001
                    CHANNELS 3 Yrotation Xrotation Zrotation
                    JOINT RightHandIndex3
                    {
                      OFFSET 0.0000 2.8180 0.0000
                      CHANNELS 3 Yrotation Xrotation Zrotation
                      End Site
                      {
                        OFFSET 0.0000 1.3566 0.0000
                      }
                    }
                  }
                }
                JOINT RightHandMiddle1
                {
                  OFFSET 0.5450 8.1366 0.1030
                  CHANNELS 3 Yrotation Xrotation Zrotation
                  JOINT RightHandMiddle2
                  {
                    OFFSET 0.0000 4.7024 -0.0001
                    CHANNELS 3 Yrotation Xrotation Zrotation
                    JOINT RightHandMiddle3
                    {
                      OFFSET 0.0000 3.1016 0.0000
                      CHANNELS 3 Yrotation Xrotation Zrotation
                      End Site
                      {
                        OFFSET 0.0000 1.4991 0.0000
                      }
                    }
                  }
                }
                JOINT RightHandPinky1
                {
                  OFFSET -3.1368 7.0181 0.1030
                  CHANNELS 3 Yrotation Xrotation Zrotation
                  JOINT RightHandPinky2
                  {
                    OFFSET 0.0000 3.5541 -0.0001
                    CHANNELS 3 Yrotation Xrotation Zrotation
                    JOINT RightHandPinky3
                    {
                      OFFSET 0.0000 2.2340 0.0000
                      CHANNELS 3 Yrotation Xrotation Zrotation
                      End Site
                      {
                        OFFSET 0.0000 1.1205 0.0000
                      }
                    }
                  }
                }
                JOINT RightHandRing1
                {
                  OFFSET -1.4405 7.8068 0.1030
                  CHANNELS 3 Yrotation Xrotation Zrotation
                  JOINT RightHandRing2
                  {
                    OFFSET 0.0000 4.3923 -0.0001
                    CHANNELS 3 Yrotation Xrotation Zrotation
                    JOINT RightHandRing3
                    {
                      OFFSET 0.0000 2.8327 0.0000
                      CHANNELS 3 Yrotation Xrotation Zrotation
                      End Site
                      {
                        OFFSET 0.0000 1.3500 0.0000
                      }
                    }
                  }
                }
                JOINT RightHandThumb1
                {
                  OFFSET 2.7863 2.0791 0.0945
                  CHANNELS 3 Yrotation Xrotation Zrotation
                  JOINT RightHandThumb2
                  {
                    OFFSET 0.0000 3.9620 -0.0001
                    CHANNELS 3 Yrotation Xrotation Zrotation
                    JOINT RightHandThumb3
                    {
                      OFFSET 0.0000 3.0072 -0.0001
                      CHANNELS 3 Yrotation Xrotation Zrotation
                      End Site
                      {
                        OFFSET 0.0000 1.7295 0.0000
                      }
                    }
                  }
                }
              }
            }
          }
        }
      }
    }
  }
  JOINT LeftUpLeg
  {
    OFFSET 8.1000 0.0000 0.0000
    CHANNELS 3 Yrotation Xrotation Zrotation
    JOINT LeftLeg
    {
      OFFSET 0.0000 43.2000 0.0000
      CHANNELS 3 Yrotation Xrotation Zrotation
      JOINT LeftFoot
      {
        OFFSET 0.0000 43.3000 0.0000
        CHANNELS 3 Yrotation Xrotation Zrotation
        JOINT LeftToeBase
        {
          OFFSET 0.0000 14.5727 0.0000
          CHANNELS 3 Yrotation Xrotation Zrotation
          End Site
          {
            OFFSET 0.0000 3.5000 0.0000
          }
        }
      }
    }
  }
  JOINT RightUpLeg
  {
    OFFSET -8.1000 0.0000 0.0000
    CHANNELS 3 Yrotation Xrotation Zrotation
    JOINT RightLeg
    {
      OFFSET 0.0000 43.2000 0.0000
      CHANNELS 3 Yrotation Xrotation Zrotation
      JOINT RightFoot
      {
        OFFSET 0.0000 43.3000 0.0000
        CHANNELS 3 Yrotation Xrotation Zrotation
        JOINT RightToeBase
        {
          OFFSET 0.0000 14.5727 0.0000
          CHANNELS 3 Yrotation Xrotation Zrotation
          End Site
          {
            OFFSET 0.0000 3.5000 0.0000
          }
        }
      }
    }
  }
}
MOTION
Frames: 4
Frame Time: 0.033333
0.0000 94.0000 0.0000 0.0000 0.0000 0.0000 0.0000 0.0000 0.0000 0.0000 0.0000 0.0000 0.0000 0.0000 0.0000 -270.0000 90.0000 0.0000 0.0000 0.0000 0.0000 0.0000 0.0000 0.0000 0.0000 0.0000 0.0000 0.0000 0.0000 0.0001 0.0000 0.0000 0.0000 0.0000 -0.0013 -0.0008 0.0000 -0.0004 0.0001 0.0000 0.0000 0.0000 0.0000 0.0000 0.0000 0.0000 0.0003 0.0000 0.0000 -0.0007 0.0003 0.0000 0.0004 -0.0006 0.0000 0.0000 0.0001 0.0000 0.0000 0.0000 0.0000 -0.0010 -0.0002 0.0000 0.0002 30.0001 -0.0001 0.0005 -29.9998 0.0000 0.0000 0.0000 0.0000 0.0000 0.0000 0.0000 0.0000 0.0000 270.0001 90.0000 0.0000 0.0000 0.0000 0.0000 0.0000 0.0000 0.0000 0.0000 0.0000 0.0000 0.0000 -0.0001 0.0001 0.0000 0.0000 0.0000 0.0000 -0.0006 0.0003 0.0000 -0.0001 0.0001 0.0000 0.0000 0.0000 0.0000 0.0000 0.0000 0.0000 0.0007 0.0001 0.0000 -0.0011 0.0001 0.0000 -0.0008 0.0003 0.0000 0.0001 0.0000 0.0000 0.0000 0.0000 0.0000 -0.0009 0.0000 0.0000 0.0002 -29.9997 -0.0001 -0.0002 29.9996 0.0000 0.0000 0.0000 0.0000 0.0000 180.0000 0.0000 0.0001 0.0826 -0.1744 64.6492 -0.1930 0.0000 25.3510 0.0000 0.0000 0.0000 180.0000 0.0000 0.0000 -0.0827 0.1745 64.6492 0.1931 0.0000 25.3508 -0.0001 
33.4848 94.6838 0.6050 72.8295 -2.0605 5.1511 0.0000 0.0000 0.0000 0.0000 0.0000 0.0000 -3.2760 0.0000 0.0000 -270.0000 90.0000 0.0000 -71.5294 -41.2386 67.9695 -1.9377 -12.4693 15.8816 0.0000 0.0000 0.0000 4.4556 17.5008 8.6883 0.0000 18.0000 0.0000 0.0000 17.9987 -0.0008 -0.0001 17.9996 5.4001 0.0000 18.0000 0.0000 0.0001 18.0000 0.0001 -22.7691 18.0024 -13.2938 -0.0002 17.9994 0.0004 -0.0001 18.0004 -0.0006 -11.4059 19.2849 -1.9366 0.0000 18.0000 0.0000 0.0000 17.9990 -0.0001 59.0812 -12.4334 28.1708 -0.3546 6.3513 -6.3900 -0.3550 6.3509 -6.3901 0.0000 0.0000 0.0000 0.2297 -0.1040 -0.1634 270.0001 90.0000 0.0000 95.0314 45.8932 -46.5517 0.0000 0.0000 -43.8142 0.0000 0.0000 0.0000 -4.4558 17.5007 -8.6881 0.0000 18.0000 0.0000 0.0000 17.9994 0.0002 0.0000 17.9999 -5.3999 0.0000 18.0000 0.0000 0.0000 18.0000 0.0000 22.7693 18.0026 13.2939 0.0000 17.9989 0.0001 0.0000 17.9993 0.0002 11.4057 19.2849 1.9367 0.0000 18.0000 0.0000 0.0000 17.9992 0.0000 -59.0813 -12.4333 -28.1704 0.3548 6.3506 6.3897 0.3549 6.3508 6.3902 -3.3422 10.9217 -174.7542 0.0083 0.0000 0.0000 -0.6206 62.4780 -0.7209 0.0000 25.0003 1.7545 -31.7716 -3.5349 179.6351 0.0212 -27.0245 -0.1394 3.5599 71.3997 4.0254 0.0000 38.3368 1.2818 
33.0339 94.5741 1.0081 75.1803 -2.9670 4.1072 0.0000 0.0000 0.0000 0.0000 0.0000 0.0000 -4.1764 0.0000 0.0000 -270.0000 90.0000 0.0000 -81.3781 -10.8664 74.3513 -0.9656 -4.2364 23.1678 0.0000 0.0000 0.0000 4.4556 17.5008 8.6883 0.0000 18.0000 0.0000 0.0000 17.9987 -0.0008 0.0000 17.9996 5.4001 0.0000 18.0001 0.0000 0.0001 18.0000 0.0001 -22.7691 18.0024 -13.2938 -0.0003 17.9994 0.0004 0.0000 18.0004 -0.0006 -11.4059 19.2849 -1.9366 0.0000 18.0000 0.0000 0.0000 17.9990 -0.0001 59.0812 -12.4334 28.1708 -0.3546 6.3513 -6.3900 -0.3550 6.3509 -6.3901 0.0000 0.0000 0.0000 -0.6716 0.3887 0.3562 270.0001 90.0000 0.0000 96.0006 46.4883 -41.9468 0.0000 0.0000 -48.1783 0.0000 0.0000 0.0000 -4.4558 17.5007 -8.6881 0.0000 18.0000 0.0000 0.0000 17.9994 0.0002 -0.0001 17.9999 -5.3999 0.0000 18.0000 0.0000 0.0000 18.0000 0.0000 22.7693 18.0026 13.2939 0.0000 17.9989 0.0001 -0.0001 17.9993 0.0002 11.4057 19.2849 1.9367 0.0000 18.0000 0.0000 0.0000 17.9991 0.0000 -59.0813 -12.4333 -28.1704 0.3548 6.3506 6.3897 0.3549 6.3508 6.3902 4.0283 10.1783 -172.2994 0.0063 0.0001 0.0000 -1.0210 63.6541 -1.1712 0.0000 25.0734 1.8900 -25.9292 -1.2480 -178.5678 0.0194 -24.9105 -0.1388 4.9039 71.3384 5.5286 0.0000 36.2174 1.4470 
32.7492 94.5033 1.1022 76.8192 -3.5201 3.4509 0.0000 0.0000 0.0000 0.0000 0.0000 0.0000 -4.9142 0.0000 0.0000 -270.0000 90.0000 0.0000 -83.3069 1.3988 75.4140 0.0000 0.0000 25.2076 0.0000 0.0000 0.0000 4.4556 17.5008 8.6883 0.0000 18.0001 0.0000 0.0000 17.9987 -0.0008 0.0000 17.9996 5.4001 0.0000 18.0000 0.0000 0.0001 18.0000 0.0001 -22.7691 18.0024 -13.2938 -0.0003 17.9994 0.0004 -0.0001 18.0004 -0.0006 -11.4059 19.2849 -1.9366 0.0000 18.0000 0.0000 0.0000 17.9990 -0.0001 59.0813 -12.4334 28.1708 -0.3546 6.3513 -6.3900 -0.3550 6.3509 -6.3901 0.0000 0.0000 0.0000 -1.0590 0.6239 0.5285 270.0001 90.0000 0.0000 96.5717 46.6877 -38.8390 -0.0001 0.0000 -50.9613 0.0000 0.0000 0.0000 -4.4558 17.5007 -8.6881 0.0000 18.0000 0.0000 0.0000 17.9994 0.0002 -0.0001 17.9999 -5.3999 0.0000 18.0000 0.0000 0.0000 18.0000 0.0000 22.7693 18.0026 13.2939 0.0000 17.9989 0.0001 -0.0001 17.9993 0.0002 11.4057 19.2849 1.9367 0.0000 18.0000 0.0000 0.0000 17.9992 0.0000 -59.0813 -12.4333 -28.1704 0.3547 6.3506 6.3897 0.3549 6.3508 6.3902 9.6609 9.2054 -170.8580 0.0049 0.0001 0.0000 -1.1799 64.4079 -1.3392 0.0000 25.1153 1.9303 -22.0105 -0.0488 -177.3622 0.0173 -23.5070 -0.1352 5.5629 71.1986 6.2676 0.0000 34.8170 1.4764 
